<mxfile host="Electron" agent="Mozilla/5.0 (Windows NT 10.0; Win64; x64) AppleWebKit/537.36 (KHTML, like Gecko) draw.io/24.7.8 Chrome/128.0.6613.36 Electron/32.0.1 Safari/537.36" version="24.7.8">
  <diagram name="Page-1" id="yifPhLWBAPtRgm-AeL5V">
    <mxGraphModel dx="2428" dy="1886" grid="1" gridSize="10" guides="1" tooltips="1" connect="1" arrows="1" fold="1" page="1" pageScale="1" pageWidth="850" pageHeight="1100" math="0" shadow="0">
      <root>
        <mxCell id="0" />
        <mxCell id="1" parent="0" />
        <mxCell id="VqA5leZGs7lyy3fMrS6U-2" value="User" style="swimlane;fontStyle=0;childLayout=stackLayout;horizontal=1;startSize=20;fillColor=#ffffff;horizontalStack=0;resizeParent=1;resizeParentMax=0;resizeLast=0;collapsible=0;marginBottom=0;swimlaneFillColor=#ffffff;strokeColor=default;" vertex="1" parent="1">
          <mxGeometry x="-290" y="-40" width="105" height="230" as="geometry" />
        </mxCell>
        <mxCell id="VqA5leZGs7lyy3fMrS6U-25" value="user_id" style="text;html=1;align=center;verticalAlign=middle;resizable=0;points=[];autosize=1;strokeColor=default;fillColor=none;dashed=1;fontStyle=1" vertex="1" parent="VqA5leZGs7lyy3fMrS6U-2">
          <mxGeometry y="20" width="105" height="30" as="geometry" />
        </mxCell>
        <mxCell id="VqA5leZGs7lyy3fMrS6U-26" value="fk_account_id" style="text;html=1;align=center;verticalAlign=middle;resizable=0;points=[];autosize=1;strokeColor=default;fillColor=none;fontStyle=4" vertex="1" parent="VqA5leZGs7lyy3fMrS6U-2">
          <mxGeometry y="50" width="105" height="30" as="geometry" />
        </mxCell>
        <mxCell id="VqA5leZGs7lyy3fMrS6U-13" value="fullname" style="text;html=1;align=center;verticalAlign=middle;resizable=0;points=[];autosize=1;strokeColor=default;fillColor=none;" vertex="1" parent="VqA5leZGs7lyy3fMrS6U-2">
          <mxGeometry y="80" width="105" height="30" as="geometry" />
        </mxCell>
        <mxCell id="VqA5leZGs7lyy3fMrS6U-27" value="gender" style="text;whiteSpace=wrap;html=1;align=center;strokeColor=default;" vertex="1" parent="VqA5leZGs7lyy3fMrS6U-2">
          <mxGeometry y="110" width="105" height="30" as="geometry" />
        </mxCell>
        <mxCell id="VqA5leZGs7lyy3fMrS6U-14" value="birthday" style="text;html=1;align=center;verticalAlign=middle;resizable=0;points=[];autosize=1;strokeColor=default;fillColor=none;" vertex="1" parent="VqA5leZGs7lyy3fMrS6U-2">
          <mxGeometry y="140" width="105" height="30" as="geometry" />
        </mxCell>
        <mxCell id="VqA5leZGs7lyy3fMrS6U-30" value="created_at" style="text;whiteSpace=wrap;html=1;align=center;strokeColor=default;" vertex="1" parent="VqA5leZGs7lyy3fMrS6U-2">
          <mxGeometry y="170" width="105" height="30" as="geometry" />
        </mxCell>
        <mxCell id="VqA5leZGs7lyy3fMrS6U-31" value="updated_at" style="text;whiteSpace=wrap;html=1;align=center;strokeColor=default;" vertex="1" parent="VqA5leZGs7lyy3fMrS6U-2">
          <mxGeometry y="200" width="105" height="30" as="geometry" />
        </mxCell>
        <mxCell id="VqA5leZGs7lyy3fMrS6U-3" value="Account" style="swimlane;fontStyle=0;childLayout=stackLayout;horizontal=1;startSize=20;fillColor=#ffffff;horizontalStack=0;resizeParent=1;resizeParentMax=0;resizeLast=0;collapsible=0;marginBottom=0;swimlaneFillColor=#ffffff;strokeColor=default;" vertex="1" parent="1">
          <mxGeometry x="-40" y="60" width="100" height="170" as="geometry" />
        </mxCell>
        <mxCell id="VqA5leZGs7lyy3fMrS6U-4" value="account_id" style="text;html=1;align=center;verticalAlign=middle;resizable=0;points=[];autosize=1;strokeColor=default;fillColor=none;fontStyle=1" vertex="1" parent="VqA5leZGs7lyy3fMrS6U-3">
          <mxGeometry y="20" width="100" height="30" as="geometry" />
        </mxCell>
        <mxCell id="VqA5leZGs7lyy3fMrS6U-6" value="username" style="text;html=1;align=center;verticalAlign=middle;resizable=0;points=[];autosize=1;strokeColor=default;fillColor=none;" vertex="1" parent="VqA5leZGs7lyy3fMrS6U-3">
          <mxGeometry y="50" width="100" height="30" as="geometry" />
        </mxCell>
        <mxCell id="VqA5leZGs7lyy3fMrS6U-8" value="hashed_password" style="text;html=1;align=center;verticalAlign=middle;resizable=0;points=[];autosize=1;strokeColor=default;fillColor=none;" vertex="1" parent="VqA5leZGs7lyy3fMrS6U-3">
          <mxGeometry y="80" width="100" height="30" as="geometry" />
        </mxCell>
        <mxCell id="VqA5leZGs7lyy3fMrS6U-34" value="created_at" style="text;whiteSpace=wrap;html=1;align=center;strokeColor=default;" vertex="1" parent="VqA5leZGs7lyy3fMrS6U-3">
          <mxGeometry y="110" width="100" height="30" as="geometry" />
        </mxCell>
        <mxCell id="VqA5leZGs7lyy3fMrS6U-35" value="updated_at" style="text;whiteSpace=wrap;html=1;align=center;strokeColor=default;" vertex="1" parent="VqA5leZGs7lyy3fMrS6U-3">
          <mxGeometry y="140" width="100" height="30" as="geometry" />
        </mxCell>
        <mxCell id="VqA5leZGs7lyy3fMrS6U-17" value="Phone" style="swimlane;fontStyle=0;childLayout=stackLayout;horizontal=1;startSize=20;fillColor=#ffffff;horizontalStack=0;resizeParent=1;resizeParentMax=0;resizeLast=0;collapsible=0;marginBottom=0;swimlaneFillColor=#ffffff;strokeColor=default;" vertex="1" parent="1">
          <mxGeometry x="-330" y="-290" width="105" height="170" as="geometry" />
        </mxCell>
        <mxCell id="VqA5leZGs7lyy3fMrS6U-18" value="phone_id" style="text;html=1;align=center;verticalAlign=middle;resizable=0;points=[];autosize=1;strokeColor=default;fillColor=none;fontStyle=1" vertex="1" parent="VqA5leZGs7lyy3fMrS6U-17">
          <mxGeometry y="20" width="105" height="30" as="geometry" />
        </mxCell>
        <mxCell id="VqA5leZGs7lyy3fMrS6U-19" value="fk_user_id" style="text;html=1;align=center;verticalAlign=middle;resizable=0;points=[];autosize=1;strokeColor=default;fillColor=none;fontStyle=4" vertex="1" parent="VqA5leZGs7lyy3fMrS6U-17">
          <mxGeometry y="50" width="105" height="30" as="geometry" />
        </mxCell>
        <mxCell id="VqA5leZGs7lyy3fMrS6U-44" value="phone_number" style="text;whiteSpace=wrap;html=1;align=center;strokeColor=default;" vertex="1" parent="VqA5leZGs7lyy3fMrS6U-17">
          <mxGeometry y="80" width="105" height="30" as="geometry" />
        </mxCell>
        <mxCell id="VqA5leZGs7lyy3fMrS6U-45" value="phone_type" style="text;whiteSpace=wrap;html=1;align=center;strokeColor=default;" vertex="1" parent="VqA5leZGs7lyy3fMrS6U-17">
          <mxGeometry y="110" width="105" height="30" as="geometry" />
        </mxCell>
        <mxCell id="VqA5leZGs7lyy3fMrS6U-46" value="is_primary" style="text;whiteSpace=wrap;html=1;align=center;strokeColor=default;" vertex="1" parent="VqA5leZGs7lyy3fMrS6U-17">
          <mxGeometry y="140" width="105" height="30" as="geometry" />
        </mxCell>
        <mxCell id="VqA5leZGs7lyy3fMrS6U-21" value="Address" style="swimlane;fontStyle=0;childLayout=stackLayout;horizontal=1;startSize=20;fillColor=#ffffff;horizontalStack=0;resizeParent=1;resizeParentMax=0;resizeLast=0;collapsible=0;marginBottom=0;swimlaneFillColor=#ffffff;strokeColor=default;labelBackgroundColor=none;labelBorderColor=none;html=1;gradientColor=none;" vertex="1" parent="1">
          <mxGeometry x="-550" y="-230" width="115" height="290" as="geometry" />
        </mxCell>
        <mxCell id="VqA5leZGs7lyy3fMrS6U-37" value="address_id" style="text;html=1;align=center;verticalAlign=middle;resizable=0;points=[];autosize=1;strokeColor=default;fillColor=none;fontStyle=1" vertex="1" parent="VqA5leZGs7lyy3fMrS6U-21">
          <mxGeometry y="20" width="115" height="30" as="geometry" />
        </mxCell>
        <mxCell id="VqA5leZGs7lyy3fMrS6U-39" value="fk_user_id" style="text;html=1;align=center;verticalAlign=middle;resizable=0;points=[];autosize=1;strokeColor=default;fillColor=none;fontStyle=4" vertex="1" parent="VqA5leZGs7lyy3fMrS6U-21">
          <mxGeometry y="50" width="115" height="30" as="geometry" />
        </mxCell>
        <mxCell id="VqA5leZGs7lyy3fMrS6U-47" value="street_address" style="text;whiteSpace=wrap;html=1;align=center;strokeColor=default;" vertex="1" parent="VqA5leZGs7lyy3fMrS6U-21">
          <mxGeometry y="80" width="115" height="30" as="geometry" />
        </mxCell>
        <mxCell id="VqA5leZGs7lyy3fMrS6U-48" value="city" style="text;whiteSpace=wrap;html=1;align=center;strokeColor=default;" vertex="1" parent="VqA5leZGs7lyy3fMrS6U-21">
          <mxGeometry y="110" width="115" height="30" as="geometry" />
        </mxCell>
        <mxCell id="VqA5leZGs7lyy3fMrS6U-49" value="state" style="text;whiteSpace=wrap;html=1;align=center;strokeColor=default;" vertex="1" parent="VqA5leZGs7lyy3fMrS6U-21">
          <mxGeometry y="140" width="115" height="30" as="geometry" />
        </mxCell>
        <mxCell id="VqA5leZGs7lyy3fMrS6U-51" value="country" style="text;whiteSpace=wrap;html=1;align=center;strokeColor=default;" vertex="1" parent="VqA5leZGs7lyy3fMrS6U-21">
          <mxGeometry y="170" width="115" height="30" as="geometry" />
        </mxCell>
        <mxCell id="VqA5leZGs7lyy3fMrS6U-50" value="postal_code" style="text;whiteSpace=wrap;html=1;align=center;strokeColor=default;" vertex="1" parent="VqA5leZGs7lyy3fMrS6U-21">
          <mxGeometry y="200" width="115" height="30" as="geometry" />
        </mxCell>
        <mxCell id="VqA5leZGs7lyy3fMrS6U-52" value="address_type" style="text;whiteSpace=wrap;html=1;align=center;strokeColor=default;" vertex="1" parent="VqA5leZGs7lyy3fMrS6U-21">
          <mxGeometry y="230" width="115" height="30" as="geometry" />
        </mxCell>
        <mxCell id="VqA5leZGs7lyy3fMrS6U-53" value="is_primary" style="text;whiteSpace=wrap;html=1;align=center;strokeColor=default;" vertex="1" parent="VqA5leZGs7lyy3fMrS6U-21">
          <mxGeometry y="260" width="115" height="30" as="geometry" />
        </mxCell>
        <mxCell id="VqA5leZGs7lyy3fMrS6U-33" style="rounded=0;orthogonalLoop=1;jettySize=auto;html=1;strokeColor=default;exitX=1.012;exitY=0.583;exitDx=0;exitDy=0;exitPerimeter=0;entryX=0.005;entryY=0.47;entryDx=0;entryDy=0;entryPerimeter=0;" edge="1" parent="1" source="VqA5leZGs7lyy3fMrS6U-26" target="VqA5leZGs7lyy3fMrS6U-4">
          <mxGeometry relative="1" as="geometry" />
        </mxCell>
        <mxCell id="VqA5leZGs7lyy3fMrS6U-43" style="rounded=0;orthogonalLoop=1;jettySize=auto;html=1;strokeColor=default;entryX=0.042;entryY=0.07;entryDx=0;entryDy=0;entryPerimeter=0;" edge="1" parent="1" source="VqA5leZGs7lyy3fMrS6U-19" target="VqA5leZGs7lyy3fMrS6U-25">
          <mxGeometry relative="1" as="geometry" />
        </mxCell>
        <mxCell id="VqA5leZGs7lyy3fMrS6U-54" style="rounded=0;orthogonalLoop=1;jettySize=auto;html=1;strokeColor=default;entryX=0;entryY=0.333;entryDx=0;entryDy=0;entryPerimeter=0;" edge="1" parent="1" source="VqA5leZGs7lyy3fMrS6U-39" target="VqA5leZGs7lyy3fMrS6U-25">
          <mxGeometry relative="1" as="geometry" />
        </mxCell>
        <mxCell id="VqA5leZGs7lyy3fMrS6U-56" value="Post" style="swimlane;fontStyle=0;childLayout=stackLayout;horizontal=1;startSize=20;fillColor=#ffffff;horizontalStack=0;resizeParent=1;resizeParentMax=0;resizeLast=0;collapsible=0;marginBottom=0;swimlaneFillColor=#ffffff;strokeColor=default;" vertex="1" parent="1">
          <mxGeometry x="-160" y="-280" width="105" height="170" as="geometry" />
        </mxCell>
        <mxCell id="VqA5leZGs7lyy3fMrS6U-57" value="post_id" style="text;html=1;align=center;verticalAlign=middle;resizable=0;points=[];autosize=1;strokeColor=default;fillColor=none;fontStyle=1" vertex="1" parent="VqA5leZGs7lyy3fMrS6U-56">
          <mxGeometry y="20" width="105" height="30" as="geometry" />
        </mxCell>
        <mxCell id="VqA5leZGs7lyy3fMrS6U-58" value="fk_user_id" style="text;html=1;align=center;verticalAlign=middle;resizable=0;points=[];autosize=1;strokeColor=default;fillColor=none;fontStyle=4" vertex="1" parent="VqA5leZGs7lyy3fMrS6U-56">
          <mxGeometry y="50" width="105" height="30" as="geometry" />
        </mxCell>
        <mxCell id="VqA5leZGs7lyy3fMrS6U-157" value="post_content" style="text;html=1;align=center;verticalAlign=middle;resizable=0;points=[];autosize=1;strokeColor=default;fillColor=none;" vertex="1" parent="VqA5leZGs7lyy3fMrS6U-56">
          <mxGeometry y="80" width="105" height="30" as="geometry" />
        </mxCell>
        <mxCell id="VqA5leZGs7lyy3fMrS6U-88" value="created_at" style="text;whiteSpace=wrap;html=1;align=center;strokeColor=default;" vertex="1" parent="VqA5leZGs7lyy3fMrS6U-56">
          <mxGeometry y="110" width="105" height="30" as="geometry" />
        </mxCell>
        <mxCell id="VqA5leZGs7lyy3fMrS6U-89" value="updated_at" style="text;whiteSpace=wrap;html=1;align=center;strokeColor=default;" vertex="1" parent="VqA5leZGs7lyy3fMrS6U-56">
          <mxGeometry y="140" width="105" height="30" as="geometry" />
        </mxCell>
        <mxCell id="VqA5leZGs7lyy3fMrS6U-64" value="Comment" style="swimlane;fontStyle=0;childLayout=stackLayout;horizontal=1;startSize=20;fillColor=#ffffff;horizontalStack=0;resizeParent=1;resizeParentMax=0;resizeLast=0;collapsible=0;marginBottom=0;swimlaneFillColor=#ffffff;strokeColor=default;" vertex="1" parent="1">
          <mxGeometry x="47" y="-240" width="113" height="200" as="geometry" />
        </mxCell>
        <mxCell id="VqA5leZGs7lyy3fMrS6U-65" value="comment_id" style="text;html=1;align=center;verticalAlign=middle;resizable=0;points=[];autosize=1;strokeColor=default;fillColor=none;fontStyle=1" vertex="1" parent="VqA5leZGs7lyy3fMrS6U-64">
          <mxGeometry y="20" width="113" height="30" as="geometry" />
        </mxCell>
        <mxCell id="VqA5leZGs7lyy3fMrS6U-66" value="fk_user_id" style="text;html=1;align=center;verticalAlign=middle;resizable=0;points=[];autosize=1;strokeColor=default;fillColor=none;fontStyle=4" vertex="1" parent="VqA5leZGs7lyy3fMrS6U-64">
          <mxGeometry y="50" width="113" height="30" as="geometry" />
        </mxCell>
        <mxCell id="VqA5leZGs7lyy3fMrS6U-160" value="fk_post_id" style="text;html=1;align=center;verticalAlign=middle;resizable=0;points=[];autosize=1;strokeColor=default;fillColor=none;fontStyle=4" vertex="1" parent="VqA5leZGs7lyy3fMrS6U-64">
          <mxGeometry y="80" width="113" height="30" as="geometry" />
        </mxCell>
        <mxCell id="VqA5leZGs7lyy3fMrS6U-106" value="comment_content" style="text;html=1;align=center;verticalAlign=middle;resizable=0;points=[];autosize=1;strokeColor=default;fillColor=none;" vertex="1" parent="VqA5leZGs7lyy3fMrS6U-64">
          <mxGeometry y="110" width="113" height="30" as="geometry" />
        </mxCell>
        <mxCell id="VqA5leZGs7lyy3fMrS6U-110" value="created_at" style="text;whiteSpace=wrap;html=1;align=center;strokeColor=default;" vertex="1" parent="VqA5leZGs7lyy3fMrS6U-64">
          <mxGeometry y="140" width="113" height="30" as="geometry" />
        </mxCell>
        <mxCell id="VqA5leZGs7lyy3fMrS6U-111" value="updated_at" style="text;whiteSpace=wrap;html=1;align=center;strokeColor=default;" vertex="1" parent="VqA5leZGs7lyy3fMrS6U-64">
          <mxGeometry y="170" width="113" height="30" as="geometry" />
        </mxCell>
        <mxCell id="VqA5leZGs7lyy3fMrS6U-70" value="FriendShip" style="swimlane;fontStyle=0;childLayout=stackLayout;horizontal=1;startSize=20;fillColor=#ffffff;horizontalStack=0;resizeParent=1;resizeParentMax=0;resizeLast=0;collapsible=0;marginBottom=0;swimlaneFillColor=#ffffff;strokeColor=default;" vertex="1" parent="1">
          <mxGeometry x="-540" y="90" width="108" height="200" as="geometry" />
        </mxCell>
        <mxCell id="VqA5leZGs7lyy3fMrS6U-120" value="&lt;b&gt;friend_ship_id&lt;/b&gt;" style="text;html=1;align=center;verticalAlign=middle;resizable=0;points=[];autosize=1;strokeColor=default;fillColor=none;" vertex="1" parent="VqA5leZGs7lyy3fMrS6U-70">
          <mxGeometry y="20" width="108" height="30" as="geometry" />
        </mxCell>
        <mxCell id="VqA5leZGs7lyy3fMrS6U-121" value="&lt;u&gt;fk_user_id&lt;/u&gt;" style="text;html=1;align=center;verticalAlign=middle;resizable=0;points=[];autosize=1;strokeColor=default;fillColor=none;" vertex="1" parent="VqA5leZGs7lyy3fMrS6U-70">
          <mxGeometry y="50" width="108" height="30" as="geometry" />
        </mxCell>
        <mxCell id="VqA5leZGs7lyy3fMrS6U-122" value="fk_friend_id" style="text;html=1;align=center;verticalAlign=middle;resizable=0;points=[];autosize=1;strokeColor=default;fillColor=none;fontStyle=4" vertex="1" parent="VqA5leZGs7lyy3fMrS6U-70">
          <mxGeometry y="80" width="108" height="30" as="geometry" />
        </mxCell>
        <mxCell id="VqA5leZGs7lyy3fMrS6U-123" value="status" style="text;html=1;align=center;verticalAlign=middle;resizable=0;points=[];autosize=1;strokeColor=default;fillColor=none;" vertex="1" parent="VqA5leZGs7lyy3fMrS6U-70">
          <mxGeometry y="110" width="108" height="30" as="geometry" />
        </mxCell>
        <mxCell id="VqA5leZGs7lyy3fMrS6U-124" value="created_at" style="text;html=1;align=center;verticalAlign=middle;resizable=0;points=[];autosize=1;strokeColor=default;fillColor=none;" vertex="1" parent="VqA5leZGs7lyy3fMrS6U-70">
          <mxGeometry y="140" width="108" height="30" as="geometry" />
        </mxCell>
        <mxCell id="VqA5leZGs7lyy3fMrS6U-125" value="updated_at" style="text;html=1;align=center;verticalAlign=middle;resizable=0;points=[];autosize=1;strokeColor=default;fillColor=none;" vertex="1" parent="VqA5leZGs7lyy3fMrS6U-70">
          <mxGeometry y="170" width="108" height="30" as="geometry" />
        </mxCell>
        <mxCell id="VqA5leZGs7lyy3fMrS6U-76" value="Message" style="swimlane;fontStyle=0;childLayout=stackLayout;horizontal=1;startSize=20;fillColor=#ffffff;horizontalStack=0;resizeParent=1;resizeParentMax=0;resizeLast=0;collapsible=0;marginBottom=0;swimlaneFillColor=#ffffff;strokeColor=default;" vertex="1" parent="1">
          <mxGeometry x="392" y="-270" width="105" height="50" as="geometry" />
        </mxCell>
        <mxCell id="VqA5leZGs7lyy3fMrS6U-82" value="Notifications" style="swimlane;fontStyle=0;childLayout=stackLayout;horizontal=1;startSize=20;fillColor=#ffffff;horizontalStack=0;resizeParent=1;resizeParentMax=0;resizeLast=0;collapsible=0;marginBottom=0;swimlaneFillColor=#ffffff;strokeColor=default;" vertex="1" parent="1">
          <mxGeometry x="530" y="40" width="105" height="50" as="geometry" />
        </mxCell>
        <mxCell id="VqA5leZGs7lyy3fMrS6U-91" value="React" style="swimlane;fontStyle=0;childLayout=stackLayout;horizontal=1;startSize=20;fillColor=#ffffff;horizontalStack=0;resizeParent=1;resizeParentMax=0;resizeLast=0;collapsible=0;marginBottom=0;swimlaneFillColor=#ffffff;strokeColor=default;" vertex="1" parent="1">
          <mxGeometry x="100" y="-25" width="113" height="200" as="geometry" />
        </mxCell>
        <mxCell id="VqA5leZGs7lyy3fMrS6U-96" value="react_id" style="text;html=1;align=center;verticalAlign=middle;resizable=0;points=[];autosize=1;strokeColor=default;fillColor=none;fontStyle=1" vertex="1" parent="VqA5leZGs7lyy3fMrS6U-91">
          <mxGeometry y="20" width="113" height="30" as="geometry" />
        </mxCell>
        <mxCell id="VqA5leZGs7lyy3fMrS6U-101" value="fk_user_id" style="text;html=1;align=center;verticalAlign=middle;resizable=0;points=[];autosize=1;strokeColor=default;fillColor=none;fontStyle=4" vertex="1" parent="VqA5leZGs7lyy3fMrS6U-91">
          <mxGeometry y="50" width="113" height="30" as="geometry" />
        </mxCell>
        <mxCell id="VqA5leZGs7lyy3fMrS6U-95" value="fk_react_status_id" style="text;html=1;align=center;verticalAlign=middle;resizable=0;points=[];autosize=1;strokeColor=default;fillColor=none;fontStyle=4" vertex="1" parent="VqA5leZGs7lyy3fMrS6U-91">
          <mxGeometry y="80" width="113" height="30" as="geometry" />
        </mxCell>
        <mxCell id="VqA5leZGs7lyy3fMrS6U-161" value="fk_post_id" style="text;html=1;align=center;verticalAlign=middle;resizable=0;points=[];autosize=1;strokeColor=default;fillColor=none;fontStyle=4" vertex="1" parent="VqA5leZGs7lyy3fMrS6U-91">
          <mxGeometry y="110" width="113" height="30" as="geometry" />
        </mxCell>
        <mxCell id="VqA5leZGs7lyy3fMrS6U-112" value="created_at" style="text;whiteSpace=wrap;html=1;align=center;strokeColor=default;" vertex="1" parent="VqA5leZGs7lyy3fMrS6U-91">
          <mxGeometry y="140" width="113" height="30" as="geometry" />
        </mxCell>
        <mxCell id="VqA5leZGs7lyy3fMrS6U-113" value="updated_at" style="text;whiteSpace=wrap;html=1;align=center;strokeColor=default;" vertex="1" parent="VqA5leZGs7lyy3fMrS6U-91">
          <mxGeometry y="170" width="113" height="30" as="geometry" />
        </mxCell>
        <mxCell id="VqA5leZGs7lyy3fMrS6U-92" value="ReactStatus" style="swimlane;fontStyle=0;childLayout=stackLayout;horizontal=1;startSize=20;fillColor=#ffffff;horizontalStack=0;resizeParent=1;resizeParentMax=0;resizeLast=0;collapsible=0;marginBottom=0;swimlaneFillColor=#ffffff;strokeColor=default;" vertex="1" parent="1">
          <mxGeometry x="279" y="80" width="113" height="80" as="geometry" />
        </mxCell>
        <mxCell id="VqA5leZGs7lyy3fMrS6U-93" value="react_status_id" style="text;html=1;align=center;verticalAlign=middle;resizable=0;points=[];autosize=1;strokeColor=default;fillColor=none;fontStyle=1" vertex="1" parent="VqA5leZGs7lyy3fMrS6U-92">
          <mxGeometry y="20" width="113" height="30" as="geometry" />
        </mxCell>
        <mxCell id="VqA5leZGs7lyy3fMrS6U-98" value="react_ststus_name" style="text;html=1;align=center;verticalAlign=middle;resizable=0;points=[];autosize=1;strokeColor=default;fillColor=none;" vertex="1" parent="VqA5leZGs7lyy3fMrS6U-92">
          <mxGeometry y="50" width="113" height="30" as="geometry" />
        </mxCell>
        <mxCell id="VqA5leZGs7lyy3fMrS6U-102" style="rounded=0;orthogonalLoop=1;jettySize=auto;html=1;strokeColor=default;entryX=1.01;entryY=0.847;entryDx=0;entryDy=0;entryPerimeter=0;" edge="1" parent="1" source="VqA5leZGs7lyy3fMrS6U-101" target="VqA5leZGs7lyy3fMrS6U-25">
          <mxGeometry relative="1" as="geometry" />
        </mxCell>
        <mxCell id="VqA5leZGs7lyy3fMrS6U-108" style="rounded=0;orthogonalLoop=1;jettySize=auto;html=1;strokeColor=default;entryX=1.01;entryY=0.647;entryDx=0;entryDy=0;entryPerimeter=0;" edge="1" parent="1" source="VqA5leZGs7lyy3fMrS6U-66" target="VqA5leZGs7lyy3fMrS6U-25">
          <mxGeometry relative="1" as="geometry" />
        </mxCell>
        <mxCell id="VqA5leZGs7lyy3fMrS6U-119" value="ProfileDetail" style="swimlane;fontStyle=0;childLayout=stackLayout;horizontal=1;startSize=20;fillColor=#ffffff;horizontalStack=0;resizeParent=1;resizeParentMax=0;resizeLast=0;collapsible=0;marginBottom=0;swimlaneFillColor=#ffffff;strokeColor=default;" vertex="1" parent="1">
          <mxGeometry x="-100" y="250" width="108" height="140" as="geometry" />
        </mxCell>
        <mxCell id="VqA5leZGs7lyy3fMrS6U-164" value="profile_detail_id" style="text;html=1;align=center;verticalAlign=middle;resizable=0;points=[];autosize=1;strokeColor=default;fillColor=none;fontStyle=1" vertex="1" parent="VqA5leZGs7lyy3fMrS6U-119">
          <mxGeometry y="20" width="108" height="30" as="geometry" />
        </mxCell>
        <mxCell id="VqA5leZGs7lyy3fMrS6U-165" value="fk_user_id" style="text;html=1;align=center;verticalAlign=middle;resizable=0;points=[];autosize=1;strokeColor=default;fillColor=none;fontStyle=4" vertex="1" parent="VqA5leZGs7lyy3fMrS6U-119">
          <mxGeometry y="50" width="108" height="30" as="geometry" />
        </mxCell>
        <mxCell id="VqA5leZGs7lyy3fMrS6U-28" value="profile_picture" style="text;whiteSpace=wrap;html=1;align=center;strokeColor=default;" vertex="1" parent="VqA5leZGs7lyy3fMrS6U-119">
          <mxGeometry y="80" width="108" height="30" as="geometry" />
        </mxCell>
        <mxCell id="VqA5leZGs7lyy3fMrS6U-29" value="bio" style="text;whiteSpace=wrap;html=1;align=center;strokeColor=default;" vertex="1" parent="VqA5leZGs7lyy3fMrS6U-119">
          <mxGeometry y="110" width="108" height="30" as="geometry" />
        </mxCell>
        <mxCell id="VqA5leZGs7lyy3fMrS6U-126" value="&lt;b&gt;status&lt;/b&gt;&lt;br&gt;&lt;div&gt;pending: Yêu cầu kết bạn đang chờ.&lt;/div&gt;&lt;div&gt;accepted: Đã kết bạn.&lt;/div&gt;&lt;div&gt;blocked: Người dùng đã chặn người kia.&lt;/div&gt;&lt;div&gt;rejected: Yêu cầu kết bạn bị từ chối.&lt;/div&gt;" style="whiteSpace=wrap;html=1;align=left;strokeColor=default;" vertex="1" parent="1">
          <mxGeometry x="-680" y="330" width="220" height="90" as="geometry" />
        </mxCell>
        <mxCell id="VqA5leZGs7lyy3fMrS6U-127" value="&lt;div style=&quot;text-align: justify;&quot;&gt;&lt;b style=&quot;background-color: initial;&quot;&gt;&lt;font style=&quot;font-size: 16px;&quot;&gt;Hệ thống mạng xã hội thu nhỏ với các chức năng:&amp;nbsp;&lt;/font&gt;&lt;/b&gt;&lt;/div&gt;&lt;div style=&quot;text-align: justify;&quot;&gt;&lt;b style=&quot;background-color: initial;&quot;&gt;&lt;font style=&quot;font-size: 16px;&quot;&gt;+ Đăng ký, đăng nhập&lt;/font&gt;&lt;/b&gt;&lt;/div&gt;&lt;div style=&quot;text-align: justify;&quot;&gt;&lt;b style=&quot;background-color: initial;&quot;&gt;&lt;font style=&quot;font-size: 16px;&quot;&gt;+ CRUD thay đổi thông tin cá nhân,&amp;nbsp;&lt;/font&gt;&lt;/b&gt;&lt;/div&gt;&lt;div style=&quot;text-align: justify;&quot;&gt;&lt;b style=&quot;background-color: initial;&quot;&gt;&lt;font style=&quot;font-size: 16px;&quot;&gt;+ CRUD bài viết&lt;/font&gt;&lt;/b&gt;&lt;/div&gt;&lt;div style=&quot;text-align: justify;&quot;&gt;&lt;b style=&quot;background-color: initial;&quot;&gt;&lt;font style=&quot;font-size: 16px;&quot;&gt;+ Hệ thống cho phép comment, thả react, chia sẽ bài viết.&lt;/font&gt;&lt;/b&gt;&lt;/div&gt;&lt;div style=&quot;text-align: justify;&quot;&gt;&lt;b style=&quot;background-color: initial;&quot;&gt;&lt;font style=&quot;font-size: 16px;&quot;&gt;+ Hệ thống kết bạn (Bạn bè)&lt;/font&gt;&lt;/b&gt;&lt;/div&gt;" style="whiteSpace=wrap;html=1;align=left;strokeColor=default;" vertex="1" parent="1">
          <mxGeometry x="-790" y="-540" width="480" height="130" as="geometry" />
        </mxCell>
        <mxCell id="VqA5leZGs7lyy3fMrS6U-128" value="1 account - 1 user" style="whiteSpace=wrap;html=1;strokeColor=default;" vertex="1" parent="1">
          <mxGeometry x="-800" y="-60" width="120" height="60" as="geometry" />
        </mxCell>
        <mxCell id="VqA5leZGs7lyy3fMrS6U-129" value="&lt;div style=&quot;text-align: justify;&quot;&gt;&lt;span style=&quot;background-color: initial;&quot;&gt;1 user - N phone number&lt;/span&gt;&lt;/div&gt;&lt;div style=&quot;text-align: justify;&quot;&gt;&lt;span style=&quot;background-color: initial;&quot;&gt;1 user - N address&lt;/span&gt;&lt;/div&gt;&lt;div style=&quot;text-align: justify;&quot;&gt;&lt;span style=&quot;background-color: initial;&quot;&gt;1 user - N friend&lt;/span&gt;&lt;/div&gt;&lt;div style=&quot;text-align: justify;&quot;&gt;&lt;span style=&quot;background-color: initial;&quot;&gt;1 user - N post&lt;/span&gt;&lt;/div&gt;" style="whiteSpace=wrap;html=1;strokeColor=default;" vertex="1" parent="1">
          <mxGeometry x="-800" y="30" width="210" height="80" as="geometry" />
        </mxCell>
        <mxCell id="VqA5leZGs7lyy3fMrS6U-134" value="&lt;div style=&quot;text-align: justify;&quot;&gt;&lt;span style=&quot;background-color: initial;&quot;&gt;1 post - N comment&lt;/span&gt;&lt;/div&gt;&lt;div style=&quot;text-align: justify;&quot;&gt;1 post - N react&lt;/div&gt;&lt;div style=&quot;text-align: justify;&quot;&gt;1 post - N share&lt;/div&gt;" style="whiteSpace=wrap;html=1;strokeColor=default;" vertex="1" parent="1">
          <mxGeometry x="-800" y="140" width="120" height="60" as="geometry" />
        </mxCell>
        <mxCell id="VqA5leZGs7lyy3fMrS6U-135" value="Account ( &lt;b style=&quot;&quot;&gt;account_id&lt;/b&gt;, username, hashedPassword, create_at, update_at )" style="whiteSpace=wrap;html=1;align=center;strokeColor=default;" vertex="1" parent="1">
          <mxGeometry x="-280" y="-740" width="428.5" height="60" as="geometry" />
        </mxCell>
        <mxCell id="VqA5leZGs7lyy3fMrS6U-136" value="User ( &lt;b style=&quot;&quot;&gt;user_id&lt;/b&gt;, &lt;u&gt;fk_account_id&lt;/u&gt; ,fullname,&amp;nbsp; gender,&amp;nbsp; birthday, address, phone_number, profile_picture, bio, social_media_links, create_at, update_at&amp;nbsp;)" style="whiteSpace=wrap;html=1;align=center;strokeColor=default;" vertex="1" parent="1">
          <mxGeometry x="-280" y="-820" width="825" height="60" as="geometry" />
        </mxCell>
        <mxCell id="VqA5leZGs7lyy3fMrS6U-140" value="Phone (&lt;b style=&quot;&quot;&gt;phone_id&lt;/b&gt;, &lt;u&gt;fk_user_id&amp;nbsp;&lt;/u&gt;&amp;nbsp;, phone_number, phone_type,&amp;nbsp; is_primary&amp;nbsp; )" style="whiteSpace=wrap;html=1;align=center;strokeColor=default;" vertex="1" parent="1">
          <mxGeometry x="-280" y="-580" width="420" height="60" as="geometry" />
        </mxCell>
        <mxCell id="VqA5leZGs7lyy3fMrS6U-142" value="&lt;div style=&quot;&quot;&gt;&lt;span style=&quot;background-color: initial;&quot;&gt;Address (&lt;/span&gt;&lt;b style=&quot;background-color: initial;&quot;&gt;address_id&lt;/b&gt;&lt;span style=&quot;background-color: initial;&quot;&gt;, &lt;/span&gt;&lt;u style=&quot;background-color: initial;&quot;&gt;fk_user_id&lt;/u&gt;&lt;span style=&quot;background-color: initial;&quot;&gt;, street_address, city, state, country, postal_code, address_type, is_primary)&lt;/span&gt;&lt;/div&gt;" style="whiteSpace=wrap;html=1;align=center;strokeColor=default;" vertex="1" parent="1">
          <mxGeometry x="-280" y="-660" width="600" height="60" as="geometry" />
        </mxCell>
        <mxCell id="VqA5leZGs7lyy3fMrS6U-143" value="Post (&lt;b&gt;post_id&lt;/b&gt;, &lt;u&gt;fk_user_id, fk_comment_id, fk_react_id, &lt;/u&gt;create_at, updated_at)" style="whiteSpace=wrap;html=1;strokeColor=default;" vertex="1" parent="1">
          <mxGeometry x="-280" y="-505" width="440" height="60" as="geometry" />
        </mxCell>
        <mxCell id="VqA5leZGs7lyy3fMrS6U-153" value="&lt;div style=&quot;text-align: justify;&quot;&gt;&lt;span style=&quot;background-color: initial;&quot;&gt;Cả &lt;/span&gt;&lt;strong style=&quot;background-color: initial;&quot;&gt;fk_user_id&lt;/strong&gt;&lt;span style=&quot;background-color: initial;&quot;&gt; và &lt;/span&gt;&lt;strong style=&quot;background-color: initial;&quot;&gt;fk_friend_id&lt;/strong&gt;&lt;span style=&quot;background-color: initial;&quot;&gt; đều trỏ về bảng &lt;/span&gt;&lt;strong style=&quot;background-color: initial;&quot;&gt;User&lt;/strong&gt;&lt;span style=&quot;background-color: initial;&quot;&gt;, tạo thành mối quan hệ &lt;/span&gt;&lt;strong style=&quot;background-color: initial;&quot;&gt;nhiều - nhiều&lt;/strong&gt;&lt;span style=&quot;background-color: initial;&quot;&gt; giữa các người dùng.&lt;/span&gt;&lt;/div&gt;" style="whiteSpace=wrap;html=1;strokeColor=default;" vertex="1" parent="1">
          <mxGeometry x="-850" y="270" width="310" height="60" as="geometry" />
        </mxCell>
        <mxCell id="VqA5leZGs7lyy3fMrS6U-154" style="rounded=0;orthogonalLoop=1;jettySize=auto;html=1;entryX=-0.019;entryY=0.827;entryDx=0;entryDy=0;entryPerimeter=0;strokeColor=default;exitX=1.008;exitY=0.543;exitDx=0;exitDy=0;exitPerimeter=0;" edge="1" parent="1" source="VqA5leZGs7lyy3fMrS6U-122" target="VqA5leZGs7lyy3fMrS6U-25">
          <mxGeometry relative="1" as="geometry" />
        </mxCell>
        <mxCell id="VqA5leZGs7lyy3fMrS6U-155" style="rounded=0;orthogonalLoop=1;jettySize=auto;html=1;strokeColor=default;exitX=0.992;exitY=0.623;exitDx=0;exitDy=0;exitPerimeter=0;entryX=-0.025;entryY=0.603;entryDx=0;entryDy=0;entryPerimeter=0;" edge="1" parent="1" source="VqA5leZGs7lyy3fMrS6U-121" target="VqA5leZGs7lyy3fMrS6U-25">
          <mxGeometry relative="1" as="geometry">
            <mxPoint x="-366" y="410" as="sourcePoint" />
            <mxPoint x="-290" y="-10" as="targetPoint" />
          </mxGeometry>
        </mxCell>
        <mxCell id="VqA5leZGs7lyy3fMrS6U-158" style="rounded=0;orthogonalLoop=1;jettySize=auto;html=1;strokeColor=default;entryX=0.994;entryY=0.314;entryDx=0;entryDy=0;entryPerimeter=0;" edge="1" parent="1" source="VqA5leZGs7lyy3fMrS6U-58" target="VqA5leZGs7lyy3fMrS6U-25">
          <mxGeometry relative="1" as="geometry" />
        </mxCell>
        <mxCell id="VqA5leZGs7lyy3fMrS6U-159" value="định danh từng loại phản ứng" style="whiteSpace=wrap;html=1;strokeColor=default;" vertex="1" parent="1">
          <mxGeometry x="255" y="175" width="290" height="60" as="geometry" />
        </mxCell>
        <mxCell id="VqA5leZGs7lyy3fMrS6U-167" style="rounded=0;orthogonalLoop=1;jettySize=auto;html=1;entryX=0.935;entryY=0.938;entryDx=0;entryDy=0;entryPerimeter=0;exitX=0.019;exitY=0.567;exitDx=0;exitDy=0;exitPerimeter=0;" edge="1" parent="1" source="VqA5leZGs7lyy3fMrS6U-165" target="VqA5leZGs7lyy3fMrS6U-25">
          <mxGeometry relative="1" as="geometry" />
        </mxCell>
        <mxCell id="VqA5leZGs7lyy3fMrS6U-168" style="rounded=0;orthogonalLoop=1;jettySize=auto;html=1;exitX=1.009;exitY=0.471;exitDx=0;exitDy=0;exitPerimeter=0;entryX=0.004;entryY=0.57;entryDx=0;entryDy=0;entryPerimeter=0;" edge="1" parent="1" source="VqA5leZGs7lyy3fMrS6U-95" target="VqA5leZGs7lyy3fMrS6U-93">
          <mxGeometry relative="1" as="geometry" />
        </mxCell>
        <mxCell id="VqA5leZGs7lyy3fMrS6U-169" value="SocialMedia" style="swimlane;fontStyle=0;childLayout=stackLayout;horizontal=1;startSize=20;fillColor=#ffffff;horizontalStack=0;resizeParent=1;resizeParentMax=0;resizeLast=0;collapsible=0;marginBottom=0;swimlaneFillColor=#ffffff;strokeColor=default;" vertex="1" parent="1">
          <mxGeometry x="-250" y="280" width="120" height="140" as="geometry" />
        </mxCell>
        <mxCell id="VqA5leZGs7lyy3fMrS6U-170" value="social_media_id" style="text;html=1;align=center;verticalAlign=middle;resizable=0;points=[];autosize=1;strokeColor=default;fillColor=none;fontStyle=1" vertex="1" parent="VqA5leZGs7lyy3fMrS6U-169">
          <mxGeometry y="20" width="120" height="30" as="geometry" />
        </mxCell>
        <mxCell id="VqA5leZGs7lyy3fMrS6U-171" value="fk_user_id" style="text;html=1;align=center;verticalAlign=middle;resizable=0;points=[];autosize=1;strokeColor=default;fillColor=none;fontStyle=4" vertex="1" parent="VqA5leZGs7lyy3fMrS6U-169">
          <mxGeometry y="50" width="120" height="30" as="geometry" />
        </mxCell>
        <mxCell id="VqA5leZGs7lyy3fMrS6U-174" value="social_media_name" style="text;whiteSpace=wrap;html=1;align=center;strokeColor=default;" vertex="1" parent="VqA5leZGs7lyy3fMrS6U-169">
          <mxGeometry y="80" width="120" height="30" as="geometry" />
        </mxCell>
        <mxCell id="VqA5leZGs7lyy3fMrS6U-176" value="social_media_link" style="text;whiteSpace=wrap;html=1;align=center;strokeColor=default;" vertex="1" parent="VqA5leZGs7lyy3fMrS6U-169">
          <mxGeometry y="110" width="120" height="30" as="geometry" />
        </mxCell>
        <mxCell id="VqA5leZGs7lyy3fMrS6U-175" style="rounded=0;orthogonalLoop=1;jettySize=auto;html=1;entryX=0.1;entryY=-0.016;entryDx=0;entryDy=0;entryPerimeter=0;exitX=0.003;exitY=0.622;exitDx=0;exitDy=0;exitPerimeter=0;" edge="1" parent="1" source="VqA5leZGs7lyy3fMrS6U-171" target="VqA5leZGs7lyy3fMrS6U-26">
          <mxGeometry relative="1" as="geometry" />
        </mxCell>
      </root>
    </mxGraphModel>
  </diagram>
</mxfile>
